#tb 0: 1/100
0,          0,          0,        1,      578, 0xd2103ab7
0,         10,         10,        1,      150, 0x178b3a8c, S=1,     1024, 0xc2f67c9f
0,         20,         20,        1,      155, 0x941743f5, S=1,     1024, 0xc2f67c9f
0,         30,         30,        1,      144, 0x68c73711, S=1,     1024, 0xc2f67c9f
0,         40,         40,        1,      152, 0xaf9a3f2e, S=1,     1024, 0xc2f67c9f
0,         50,         50,        1,      136, 0x68593d85, S=1,     1024, 0xc2f67c9f
0,         60,         60,        1,      134, 0x0dcb373f, S=1,     1024, 0xc2f67c9f
0,         70,         70,        1,      129, 0x3baf3279, S=1,     1024, 0xc2f67c9f
0,         80,         80,        1,      123, 0x9c963148, S=1,     1024, 0xc2f67c9f
0,         90,         90,        1,      123, 0x5c272d6b, S=1,     1024, 0xc2f67c9f
0,        100,        100,        1,      150, 0x5f8d41aa, S=1,     1024, 0xc2f67c9f
0,        110,        110,        1,      134, 0x6f582fee, S=1,     1024, 0xc2f67c9f
0,        120,        120,        1,      134, 0x85d53038, S=1,     1024, 0xc2f67c9f
0,        130,        130,        1,      123, 0x6d2a2cb2, S=1,     1024, 0xc2f67c9f
0,        140,        140,        1,      127, 0x1e78327b, S=1,     1024, 0xc2f67c9f
0,        150,        150,        1,      119, 0xbafc2c31, S=1,     1024, 0xc2f67c9f
0,        160,        160,        1,      138, 0x57553638, S=1,     1024, 0xc2f67c9f
0,        170,        170,        1,      139, 0xbbe73ada, S=1,     1024, 0xc2f67c9f
0,        180,        180,        1,      121, 0x4e602f8a, S=1,     1024, 0xc2f67c9f
0,        190,        190,        1,      123, 0xaa7d313c, S=1,     1024, 0xc2f67c9f
0,        200,        200,        1,      139, 0x14223b33, S=1,     1024, 0xc2f67c9f
0,        210,        210,        1,      123, 0x67753163, S=1,     1024, 0xc2f67c9f
0,        220,        220,        1,      123, 0x02193147, S=1,     1024, 0xc2f67c9f
0,        230,        230,        1,      124, 0xa85131e9, S=1,     1024, 0xc2f67c9f
0,        240,        240,        1,      121, 0xbd3731e1, S=1,     1024, 0xc2f67c9f
0,        250,        250,        1,      121, 0xd38e32c8, S=1,     1024, 0xc2f67c9f
0,        260,        260,        1,      123, 0xcc8831cd, S=1,     1024, 0xc2f67c9f
0,        270,        270,        1,      118, 0xa1d33166, S=1,     1024, 0xc2f67c9f
0,        280,        280,        1,      159, 0xcc8c454c, S=1,     1024, 0xc2f67c9f
0,        290,        290,        1,      139, 0x57d531ac, S=1,     1024, 0xc2f67c9f
0,        300,        300,        1,      163, 0xe78248d2, S=1,     1024, 0xc2f67c9f
0,        310,        310,        1,      142, 0x3b293489, S=1,     1024, 0xc2f67c9f
0,        320,        320,        1,      170, 0x5f504b12, S=1,     1024, 0xc2f67c9f
0,        330,        330,        1,      146, 0x38a53693, S=1,     1024, 0xc2f67c9f
0,        340,        340,        1,      132, 0xb18a3499, S=1,     1024, 0xc2f67c9f
0,        350,        350,        1,      112, 0x28d92bd9, S=1,     1024, 0xc2f67c9f
0,        360,        360,        1,      132, 0xaced3333, S=1,     1024, 0xc2f67c9f
0,        370,        370,        1,      120, 0x9ffe2e4f, S=1,     1024, 0xc2f67c9f
0,        380,        380,        1,      135, 0x6223351e, S=1,     1024, 0xc2f67c9f
0,        390,        390,        1,      123, 0x269b3058, S=1,     1024, 0xc2f67c9f
0,        400,        400,        1,      119, 0x17052def, S=1,     1024, 0xc2f67c9f
0,        410,        410,        1,      119, 0x36da2ee2, S=1,     1024, 0xc2f67c9f
0,        420,        420,        1,      120, 0x984e31be, S=1,     1024, 0xc2f67c9f
0,        430,        430,        1,      114, 0xfd382c9d, S=1,     1024, 0xc2f67c9f
0,        440,        440,        1,      125, 0x926a36c6, S=1,     1024, 0xc2f67c9f
0,        450,        450,        1,      117, 0xbceb3183, S=1,     1024, 0xc2f67c9f
0,        460,        460,        1,      116, 0xf4c72d82, S=1,     1024, 0xc2f67c9f
0,        470,        470,        1,      124, 0x0c19343c, S=1,     1024, 0xc2f67c9f
0,        480,        480,        1,      117, 0x1f032eb1, S=1,     1024, 0xc2f67c9f
0,        490,        490,        1,      135, 0x31a437e6, S=1,     1024, 0xc2f67c9f
0,        500,        500,        1,      130, 0x15a235fd, S=1,     1024, 0xc2f67c9f
0,        510,        510,        1,      121, 0x828f3462, S=1,     1024, 0xc2f67c9f
0,        520,        520,        1,      121, 0x4a0f34e0, S=1,     1024, 0xc2f67c9f
0,        530,        530,        1,      124, 0x9562350f, S=1,     1024, 0xc2f67c9f
0,        540,        540,        1,      126, 0x18b33759, S=1,     1024, 0xc2f67c9f
0,        550,        550,        1,      117, 0x748f3243, S=1,     1024, 0xc2f67c9f
0,        560,        560,        1,      109, 0x72832fe7, S=1,     1024, 0xc2f67c9f
0,        570,        570,        1,      120, 0x748a2e38, S=1,     1024, 0xc2f67c9f
0,        580,        580,        1,      120, 0x61f82fb2, S=1,     1024, 0xc2f67c9f
0,        590,        590,        1,      121, 0xf76c3281, S=1,     1024, 0xc2f67c9f
0,        600,        600,        1,      116, 0x8b542de6, S=1,     1024, 0xc2f67c9f
0,        610,        610,        1,      119, 0xf33c318e, S=1,     1024, 0xc2f67c9f
0,        620,        620,        1,      116, 0xff182f36, S=1,     1024, 0xc2f67c9f
0,        630,        630,        1,      119, 0xeb9e2fcc, S=1,     1024, 0xc2f67c9f
0,        640,        640,        1,      118, 0xe82d304e, S=1,     1024, 0xc2f67c9f
0,        650,        650,        1,      137, 0x98303d30, S=1,     1024, 0xc2f67c9f
0,        660,        660,        1,      148, 0xc07b3ffe, S=1,     1024, 0xc2f67c9f
0,        670,        670,        1,      115, 0x4ca92f75, S=1,     1024, 0xc2f67c9f
0,        680,        680,        1,      130, 0xb7e23bbf, S=1,     1024, 0xc2f67c9f
0,        690,        690,        1,      115, 0xda5e2f30, S=1,     1024, 0xc2f67c9f
0,        700,        700,        1,      100, 0x9ba32a58, S=1,     1024, 0xc2f67c9f
0,        710,        710,        1,      109, 0xa47e2c91, S=1,     1024, 0xc2f67c9f
0,        720,        720,        1,      120, 0x22452fd6, S=1,     1024, 0xc2f67c9f
0,        730,        730,        1,      116, 0xd3c52c26, S=1,     1024, 0xc2f67c9f
0,        740,        740,        1,      106, 0x95b42c9f, S=1,     1024, 0xc2f67c9f
0,        750,        750,        1,       96, 0xfdc12639, S=1,     1024, 0xc2f67c9f
0,        760,        760,        1,       99, 0x210f251b, S=1,     1024, 0xc2f67c9f
0,        770,        770,        1,      119, 0x173b341c, S=1,     1024, 0xc2f67c9f
0,        780,        780,        1,      119, 0x3bca2f29, S=1,     1024, 0xc2f67c9f
0,        790,        790,        1,      213, 0x9e905d4c, S=1,     1024, 0xc2f67c9f
0,        800,        800,        1,      209, 0xa0015e94, S=1,     1024, 0xc2f67c9f
0,        810,        810,        1,      120, 0x36762bd4, S=1,     1024, 0xc2f67c9f
0,        820,        820,        1,      119, 0x019b2edc, S=1,     1024, 0xc2f67c9f
0,        830,        830,        1,      124, 0x211d30e7, S=1,     1024, 0xc2f67c9f
0,        840,        840,        1,      125, 0x538732ff, S=1,     1024, 0xc2f67c9f
0,        850,        850,        1,      123, 0x2887308a, S=1,     1024, 0xc2f67c9f
0,        860,        860,        1,      119, 0x7ff930f4, S=1,     1024, 0xc2f67c9f
0,        870,        870,        1,      119, 0xa50c2e16, S=1,     1024, 0xc2f67c9f
0,        880,        880,        1,      107, 0x9ed02cea, S=1,     1024, 0xc2f67c9f
0,        890,        890,        1,      119, 0xc234332a, S=1,     1024, 0xc2f67c9f
0,        900,        900,        1,      115, 0x38353092, S=1,     1024, 0xc2f67c9f
0,        910,        910,        1,      162, 0x6cda4644, S=1,     1024, 0xc2f67c9f
0,        920,        920,        1,      124, 0x2f683081, S=1,     1024, 0xc2f67c9f
0,        930,        930,        1,      116, 0x72952d04, S=1,     1024, 0xc2f67c9f
0,        940,        940,        1,       84, 0x1a532301, S=1,     1024, 0xc2f67c9f
0,        950,        950,        1,      175, 0xa69853ff, S=1,     1024, 0xc2f67c9f
0,        960,        960,        1,      137, 0x253132d1, S=1,     1024, 0xc2f67c9f
0,        970,        970,        1,      179, 0x2b38528b, S=1,     1024, 0xc2f67c9f
0,        980,        980,        1,      150, 0xbe413cbe, S=1,     1024, 0xc2f67c9f
0,        990,        990,        1,      139, 0x64e93929, S=1,     1024, 0xc2f67c9f
0,       1000,       1000,        1,      129, 0x577e331e, S=1,     1024, 0xc2f67c9f
0,       1010,       1010,        1,      146, 0x16ff3924, S=1,     1024, 0xc2f67c9f
0,       1020,       1020,        1,      133, 0x756a3163, S=1,     1024, 0xc2f67c9f
0,       1030,       1030,        1,      190, 0x3e865b77, S=1,     1024, 0xc2f67c9f
0,       1040,       1040,        1,      159, 0xdf393fc8, S=1,     1024, 0xc2f67c9f
0,       1050,       1050,        1,      188, 0x84be5168, S=1,     1024, 0xc2f67c9f
0,       1060,       1060,        1,      163, 0x4c0e41f0, S=1,     1024, 0xc2f67c9f
0,       1070,       1070,        1,      144, 0x5fda3792, S=1,     1024, 0xc2f67c9f
0,       1080,       1080,        1,      136, 0x028c3800, S=1,     1024, 0xc2f67c9f
0,       1090,       1090,        1,      150, 0x75d43a8d, S=1,     1024, 0xc2f67c9f
0,       1100,       1100,        1,      134, 0x81123999, S=1,     1024, 0xc2f67c9f
0,       1110,       1110,        1,      198, 0x0a875baa, S=1,     1024, 0xc2f67c9f
0,       1120,       1120,        1,      169, 0xfdd7458c, S=1,     1024, 0xc2f67c9f
0,       1130,       1130,        1,      210, 0x9b195be4, S=1,     1024, 0xc2f67c9f
0,       1140,       1140,        1,      174, 0x0a424a76, S=1,     1024, 0xc2f67c9f
0,       1150,       1150,        1,      137, 0xb1b535fd, S=1,     1024, 0xc2f67c9f
0,       1160,       1160,        1,      121, 0x1a56327a, S=1,     1024, 0xc2f67c9f
0,       1170,       1170,        1,      152, 0x5e423b0c, S=1,     1024, 0xc2f67c9f
0,       1180,       1180,        1,      137, 0xd13a39f7, S=1,     1024, 0xc2f67c9f
0,       1190,       1190,        1,      156, 0x40864321, S=1,     1024, 0xc2f67c9f
0,       1200,       1200,        1,      139, 0x8462393b, S=1,     1024, 0xc2f67c9f
0,       1210,       1210,        1,      179, 0xaf204635, S=1,     1024, 0xc2f67c9f
0,       1220,       1220,        1,      116, 0x5ac83123, S=1,     1024, 0xc2f67c9f
0,       1230,       1230,        1,      118, 0x22bc2ec5, S=1,     1024, 0xc2f67c9f
0,       1240,       1240,        1,      123, 0xc9b5302d, S=1,     1024, 0xc2f67c9f
0,       1250,       1250,        1,      125, 0x5cee3077, S=1,     1024, 0xc2f67c9f
0,       1260,       1260,        1,      193, 0x724159c9, S=1,     1024, 0xc2f67c9f
0,       1270,       1270,        1,      121, 0x1a8d3228, S=1,     1024, 0xc2f67c9f
0,       1280,       1280,        1,      124, 0x948f330b, S=1,     1024, 0xc2f67c9f
0,       1290,       1290,        1,      133, 0xd53c35ca, S=1,     1024, 0xc2f67c9f
0,       1300,       1300,        1,      126, 0xc5543710, S=1,     1024, 0xc2f67c9f
0,       1310,       1310,        1,      208, 0x6cf15ea2, S=1,     1024, 0xc2f67c9f
0,       1320,       1320,        1,      130, 0x73573504, S=1,     1024, 0xc2f67c9f
0,       1330,       1330,        1,      114, 0x0ae53001, S=1,     1024, 0xc2f67c9f
0,       1340,       1340,        1,      129, 0xe9ff37c4, S=1,     1024, 0xc2f67c9f
0,       1350,       1350,        1,      120, 0x02623359, S=1,     1024, 0xc2f67c9f
0,       1360,       1360,        1,      164, 0x9dc545e5, S=1,     1024, 0xc2f67c9f
0,       1370,       1370,        1,      245, 0xc170715a, S=1,     1024, 0xc2f67c9f
0,       1380,       1380,        1,      215, 0xc93d5fbe, S=1,     1024, 0xc2f67c9f
0,       1390,       1390,        1,      225, 0x14866349, S=1,     1024, 0xc2f67c9f
0,       1400,       1400,        1,      123, 0x70cd2b64, S=1,     1024, 0xc2f67c9f
0,       1410,       1410,        1,      124, 0xe9002fb5, S=1,     1024, 0xc2f67c9f
0,       1420,       1420,        1,      125, 0x106e309b, S=1,     1024, 0xc2f67c9f
0,       1430,       1430,        1,      121, 0xd1e132af, S=1,     1024, 0xc2f67c9f
0,       1440,       1440,        1,      224, 0xf548614f, S=1,     1024, 0xc2f67c9f
0,       1450,       1450,        1,      238, 0xa68c6add, S=1,     1024, 0xc2f67c9f
0,       1460,       1460,        1,      127, 0x398734b6, S=1,     1024, 0xc2f67c9f
0,       1470,       1470,        1,      126, 0x2ff431e5, S=1,     1024, 0xc2f67c9f
0,       1480,       1480,        1,      124, 0x9583313b, S=1,     1024, 0xc2f67c9f
0,       1490,       1490,        1,      126, 0xc1fc3692, S=1,     1024, 0xc2f67c9f
0,       1500,       1500,        1,      123, 0xd0bf3170, S=1,     1024, 0xc2f67c9f
0,       1510,       1510,        1,      117, 0x651f3032, S=1,     1024, 0xc2f67c9f
0,       1520,       1520,        1,      119, 0x268a3078, S=1,     1024, 0xc2f67c9f
0,       1530,       1530,        1,      117, 0x9e4d3283, S=1,     1024, 0xc2f67c9f
0,       1540,       1540,        1,      148, 0x4acd43b9, S=1,     1024, 0xc2f67c9f
0,       1550,       1550,        1,      127, 0x352338bc, S=1,     1024, 0xc2f67c9f
0,       1560,       1560,        1,      112, 0xc6c4314d, S=1,     1024, 0xc2f67c9f
0,       1570,       1570,        1,      128, 0x88103a62, S=1,     1024, 0xc2f67c9f
0,       1580,       1580,        1,      111, 0xbf0630d9, S=1,     1024, 0xc2f67c9f
0,       1590,       1590,        1,      146, 0x159c44f7, S=1,     1024, 0xc2f67c9f
0,       1600,       1600,        1,      237, 0x4e45662e, S=1,     1024, 0xc2f67c9f
0,       1610,       1610,        1,      233, 0x8f9e6354, S=1,     1024, 0xc2f67c9f
0,       1620,       1620,        1,      160, 0x9c3f431f, S=1,     1024, 0xc2f67c9f
0,       1630,       1630,        1,      125, 0xbd2b33c6, S=1,     1024, 0xc2f67c9f
0,       1640,       1640,        1,      130, 0x02b13ba4, S=1,     1024, 0xc2f67c9f
0,       1650,       1650,        1,      231, 0xdf286db6, S=1,     1024, 0xc2f67c9f
0,       1660,       1660,        1,      153, 0xb6da408d, S=1,     1024, 0xc2f67c9f
0,       1670,       1670,        1,      126, 0x6741365e, S=1,     1024, 0xc2f67c9f
0,       1680,       1680,        1,      112, 0x389a2c8f, S=1,     1024, 0xc2f67c9f
0,       1690,       1690,        1,      125, 0xc0033320, S=1,     1024, 0xc2f67c9f
0,       1700,       1700,        1,      121, 0xb56b2db0, S=1,     1024, 0xc2f67c9f
0,       1710,       1710,        1,      145, 0x29d63e83, S=1,     1024, 0xc2f67c9f
0,       1720,       1720,        1,      171, 0xc0e44b70, S=1,     1024, 0xc2f67c9f
